<?xml version="1.0" encoding="iso-8859-1"?>
<!-- Generator: Adobe Illustrator 19.0.0, SVG Export Plug-In . SVG Version: 6.00 Build 0)  -->
<svg version="1.1" id="Layer_1" xmlns="http://www.w3.org/2000/svg" xmlns:xlink="http://www.w3.org/1999/xlink" x="0px" y="0px"
	 viewBox="0 0 511.999 511.999" style="enable-background:new 0 0 511.999 511.999;" xml:space="preserve">
<path style="fill:#88888F;" d="M189.786,68.562c-4.171-6.869-9.226-13.352-15.16-19.288c-39.947-39.947-104.718-39.947-144.665,0
	S-9.987,153.992,29.96,193.941c5.774,5.775,12.068,10.711,18.727,14.816"/>
<path style="fill:#797781;" d="M462.75,209.1c6.87-4.168,13.353-9.226,19.29-15.16c39.946-39.948,39.946-104.718,0-144.668
	C442.093,9.326,377.321,9.326,337.373,49.27c-5.776,5.778-10.714,12.069-14.819,18.73"/>
<circle style="fill:#F8F8F9;" cx="255.312" cy="275.312" r="217.374"/>
<path style="fill:#EDEDED;" d="M472.682,275.315c0-119.821-96.949-216.992-216.683-217.365V492.68
	C375.732,492.307,472.682,395.137,472.682,275.315z"/>
<circle style="fill:#88888F;" cx="153.708" cy="224.165" r="76.72"/>
<circle style="fill:#797781;" cx="358.296" cy="224.165" r="76.72"/>
<path style="fill:#D8D8DA;" d="M363.995,351.549c0,24.677-20.076,44.754-44.754,44.754c-24.677,0-44.754-20.076-44.754-44.754
	h-38.36c0,24.677-20.076,44.754-44.754,44.754s-44.754-20.076-44.754-44.754h-38.36c0,45.829,37.285,83.114,83.114,83.114
	c25.682,0,48.675-11.713,63.934-30.072c15.258,18.359,38.253,30.072,63.934,30.072c45.829,0,83.114-37.285,83.114-83.114H363.995z"
	/>
<path style="fill:#58575D;" d="M153.706,249.741h-0.003c-14.1,0-25.571-11.472-25.571-25.573
	c0.005-14.104,11.477-25.573,25.573-25.573c14.101,0,25.573,11.472,25.573,25.573C179.279,238.269,167.807,249.741,153.706,249.741z
	"/>
<path style="fill:#454449;" d="M358.294,249.741h-0.003c-14.1,0-25.571-11.472-25.571-25.573
	c0.005-14.104,11.477-25.573,25.573-25.573c14.101,0,25.573,11.472,25.573,25.573C383.867,238.269,372.395,249.741,358.294,249.741z
	"/>
<path style="fill:#C6C5CA;" d="M363.995,352.035c0,24.677-20.076,44.754-44.754,44.754c-24.677,0-44.754-20.076-44.754-44.754H256
	v53.83c15.257,17.899,37.937,29.284,63.242,29.284c45.829,0,83.114-37.285,83.114-83.114H363.995z"/>
<path style="fill:#58575D;" d="M296.917,320.068c-6.721,20.394-24.73,42.878-40.918,43.22c-16.188-0.343-34.197-22.827-40.918-43.22
	c-3.105-10.42,4.92-19.043,17.901-19.18c15.344,0,30.688,0,46.032,0C291.998,301.025,300.021,309.646,296.917,320.068z"/>
<path style="fill:#454449;" d="M279.016,300.888c-7.672,0-15.344,0-23.016,0v62.401c16.188-0.343,34.197-22.827,40.918-43.22
	C300.021,309.646,291.998,301.025,279.016,300.888z"/>
<g>
</g>
<g>
</g>
<g>
</g>
<g>
</g>
<g>
</g>
<g>
</g>
<g>
</g>
<g>
</g>
<g>
</g>
<g>
</g>
<g>
</g>
<g>
</g>
<g>
</g>
<g>
</g>
<g>
</g>
</svg>
